<svg width="150" height="170" viewBox="0 0 150 170" fill="none" xmlns="http://www.w3.org/2000/svg">
<path d="M149.855 57.4171C145.855 165.917 86.8546 167.417 0.854641 169.417C-3.14536 156.75 6.35474 132.917 40.8546 132.917C75.3545 132.917 102.355 113.917 110.355 86.9172C71.3546 83.4172 38.8546 111.417 38.8546 111.417C69.3546 44.9171 149.855 57.4171 149.855 57.4171Z" fill="#99E135"/>
<path d="M40.8546 81.917C34.0546 113.917 12.188 113.75 0.854641 111.417C-3.14526 -23.583 149.855 1.91717 149.855 1.91717C149.855 35.5766 124.355 37.0094 103.355 37.4172C86.1881 37.7505 47.6546 49.917 40.8546 81.917Z" fill="#99E135"/>
</svg>
