<svg width="597" height="170" viewBox="0 0 597 170" fill="none" xmlns="http://www.w3.org/2000/svg">
<path d="M447.855 57.4171C443.855 165.917 384.855 167.417 298.855 169.417C294.855 156.75 304.355 132.917 338.855 132.917C373.355 132.917 400.355 113.917 408.355 86.9172C369.355 83.4172 336.855 111.417 336.855 111.417C367.355 44.9171 447.855 57.4171 447.855 57.4171Z" fill="#99E135"/>
<path d="M338.855 81.917C332.055 113.917 310.188 113.75 298.855 111.417C294.855 -23.583 447.855 1.91717 447.855 1.91717C447.855 35.5766 422.355 37.0094 401.355 37.4172C384.188 37.7505 345.655 49.917 338.855 81.917Z" fill="#99E135"/>
<path d="M8 63.7H23.6V133H8V63.7ZM38.6406 82.2C41.174 81.4667 44.4406 80.8 48.4406 80.2C52.4406 79.5333 56.6406 79.2 61.0406 79.2C65.5073 79.2 69.2073 79.8 72.1406 81C75.1406 82.1333 77.5073 83.7667 79.2406 85.9C80.974 88.0333 82.2073 90.5667 82.9406 93.5C83.674 96.4333 84.0406 99.7 84.0406 103.3V133H69.1406V105.1C69.1406 100.3 68.5073 96.9 67.2406 94.9C65.974 92.9 63.6073 91.9 60.1406 91.9C59.074 91.9 57.9406 91.9667 56.7406 92.1C55.5406 92.1667 54.474 92.2667 53.5406 92.4V133H38.6406V82.2ZM97.0273 67.3L111.927 64.9V80.4H129.827V92.8H111.927V111.3C111.927 114.433 112.461 116.933 113.527 118.8C114.661 120.667 116.894 121.6 120.227 121.6C121.827 121.6 123.461 121.467 125.127 121.2C126.861 120.867 128.427 120.433 129.827 119.9L131.927 131.5C130.127 132.233 128.127 132.867 125.927 133.4C123.727 133.933 121.027 134.2 117.827 134.2C113.761 134.2 110.394 133.667 107.727 132.6C105.061 131.467 102.927 129.933 101.327 128C99.7273 126 98.594 123.6 97.9273 120.8C97.3273 118 97.0273 114.9 97.0273 111.5V67.3ZM137.508 107.1C137.508 102.433 138.208 98.3667 139.608 94.9C141.074 91.3667 142.974 88.4333 145.308 86.1C147.641 83.7667 150.308 82 153.308 80.8C156.374 79.6 159.508 79 162.708 79C170.174 79 176.074 81.3 180.408 85.9C184.741 90.4333 186.908 97.1333 186.908 106C186.908 106.867 186.874 107.833 186.808 108.9C186.741 109.9 186.674 110.8 186.608 111.6H152.808C153.141 114.667 154.574 117.1 157.108 118.9C159.641 120.7 163.041 121.6 167.308 121.6C170.041 121.6 172.708 121.367 175.308 120.9C177.974 120.367 180.141 119.733 181.808 119L183.808 131.1C183.008 131.5 181.941 131.9 180.608 132.3C179.274 132.7 177.774 133.033 176.108 133.3C174.508 133.633 172.774 133.9 170.908 134.1C169.041 134.3 167.174 134.4 165.308 134.4C160.574 134.4 156.441 133.7 152.908 132.3C149.441 130.9 146.541 129 144.208 126.6C141.941 124.133 140.241 121.233 139.108 117.9C138.041 114.567 137.508 110.967 137.508 107.1ZM172.508 101.4C172.441 100.133 172.208 98.9 171.808 97.7C171.474 96.5 170.908 95.4333 170.108 94.5C169.374 93.5667 168.408 92.8 167.208 92.2C166.074 91.6 164.641 91.3 162.908 91.3C161.241 91.3 159.808 91.6 158.608 92.2C157.408 92.7333 156.408 93.4667 155.608 94.4C154.808 95.3333 154.174 96.4333 153.708 97.7C153.308 98.9 153.008 100.133 152.808 101.4H172.508ZM219.406 134C215.073 133.933 211.54 133.467 208.806 132.6C206.14 131.733 204.006 130.533 202.406 129C200.873 127.4 199.806 125.5 199.206 123.3C198.673 121.033 198.406 118.5 198.406 115.7V57.8L213.306 55.4V112.7C213.306 114.033 213.406 115.233 213.606 116.3C213.806 117.367 214.173 118.267 214.706 119C215.306 119.733 216.14 120.333 217.206 120.8C218.273 121.267 219.706 121.567 221.506 121.7L219.406 134ZM251.047 134C246.714 133.933 243.18 133.467 240.447 132.6C237.78 131.733 235.647 130.533 234.047 129C232.514 127.4 231.447 125.5 230.847 123.3C230.314 121.033 230.047 118.5 230.047 115.7V57.8L244.947 55.4V112.7C244.947 114.033 245.047 115.233 245.247 116.3C245.447 117.367 245.814 118.267 246.347 119C246.947 119.733 247.78 120.333 248.847 120.8C249.914 121.267 251.347 121.567 253.147 121.7L251.047 134ZM276.588 133H261.688V80.4H276.588V133ZM277.988 65.2C277.988 67.9333 277.088 70.1 275.288 71.7C273.554 73.2333 271.488 74 269.088 74C266.688 74 264.588 73.2333 262.788 71.7C261.054 70.1 260.188 67.9333 260.188 65.2C260.188 62.4667 261.054 60.3333 262.788 58.8C264.588 57.2 266.688 56.4 269.088 56.4C271.488 56.4 273.554 57.2 275.288 58.8C277.088 60.3333 277.988 62.4667 277.988 65.2Z" fill="#99E135"/>
<path d="M497.7 93.6C496.367 93.2667 494.8 92.9333 493 92.6C491.2 92.2 489.267 92 487.2 92C486.267 92 485.133 92.1 483.8 92.3C482.533 92.4333 481.567 92.6 480.9 92.8V133H466V83.2C468.667 82.2667 471.8 81.4 475.4 80.6C479.067 79.7333 483.133 79.3 487.6 79.3C488.4 79.3 489.367 79.3667 490.5 79.5C491.633 79.5667 492.767 79.7 493.9 79.9C495.033 80.0333 496.167 80.2333 497.3 80.5C498.433 80.7 499.4 80.9667 500.2 81.3L497.7 93.6ZM523.088 133H508.188V80.4H523.088V133ZM524.488 65.2C524.488 67.9333 523.588 70.1 521.788 71.7C520.054 73.2333 517.988 74 515.588 74C513.188 74 511.088 73.2333 509.288 71.7C507.554 70.1 506.688 67.9333 506.688 65.2C506.688 62.4667 507.554 60.3333 509.288 58.8C511.088 57.2 513.188 56.4 515.588 56.4C517.988 56.4 520.054 57.2 521.788 58.8C523.588 60.3333 524.488 62.4667 524.488 65.2ZM549.794 106.3C549.794 110.9 550.827 114.6 552.894 117.4C554.96 120.2 558.027 121.6 562.094 121.6C563.427 121.6 564.66 121.567 565.794 121.5C566.927 121.367 567.86 121.233 568.594 121.1V94C567.66 93.4 566.427 92.9 564.894 92.5C563.427 92.1 561.927 91.9 560.394 91.9C553.327 91.9 549.794 96.7 549.794 106.3ZM583.494 131.3C582.16 131.7 580.627 132.1 578.894 132.5C577.16 132.833 575.327 133.133 573.394 133.4C571.527 133.667 569.594 133.867 567.594 134C565.66 134.2 563.794 134.3 561.994 134.3C557.66 134.3 553.794 133.667 550.394 132.4C546.994 131.133 544.127 129.333 541.794 127C539.46 124.6 537.66 121.733 536.394 118.4C535.194 115 534.594 111.2 534.594 107C534.594 102.733 535.127 98.9 536.194 95.5C537.26 92.0333 538.794 89.1 540.794 86.7C542.794 84.3 545.227 82.4667 548.094 81.2C551.027 79.9333 554.36 79.3 558.094 79.3C560.16 79.3 561.994 79.5 563.594 79.9C565.26 80.3 566.927 80.8667 568.594 81.6V57.8L583.494 55.4V131.3Z" fill="#99E135"/>
</svg>
